{
  "accessors": [
    {
      "bufferView": 2,
      "componentType": 5126,
      "count": 272,
      "max": [
        1.700448989868164,
        1.0300203561782837,
        0.7252894639968872
      ],
      "min": [
        -1.700448989868164,
        0.09105357527732849,
        -0.4581201672554016
      ],
      "type": "VEC3"
    },
    {
      "bufferView": 2,
      "byteOffset": 3264,
      "componentType": 5126,
      "count": 272,
      "max": [
        0.9999988675117493,
        0.34392672777175903,
        0.9999847412109375
      ],
      "min": [
        -0.9999988675117493,
        -1.0,
        -1.0
      ],
      "type": "VEC3"
    },
    {
      "bufferView": 1,
      "componentType": 5126,
      "count": 272,
      "max": [
        1.0,
        1.0
      ],
      "min": [
        0.5,
        0.22073446214199066
      ],
      "type": "VEC2"
    },
    {
      "bufferView": 0,
      "componentType": 5125,
      "count": 894,
      "type": "SCALAR"
    },
    {
      "bufferView": 2,
      "byteOffset": 6528,
      "componentType": 5126,
      "count": 226,
      "max": [
        1.6999999284744263,
        0.8755519390106201,
        0.699999988079071
      ],
      "min": [
        -1.6999999284744263,
        -0.4171224534511566,
        -0.7000000476837158
      ],
      "type": "VEC3"
    },
    {
      "bufferView": 2,
      "byteOffset": 9240,
      "componentType": 5126,
      "count": 226,
      "max": [
        1.0,
        0.14409631490707397,
        1.0
      ],
      "min": [
        -1.0,
        -0.954926073551178,
        -1.0
      ],
      "type": "VEC3"
    },
    {
      "bufferView": 1,
      "byteOffset": 2176,
      "componentType": 5126,
      "count": 226,
      "max": [
        1.0,
        1.0
      ],
      "min": [
        0.5,
        0.0
      ],
      "type": "VEC2"
    },
    {
      "bufferView": 0,
      "byteOffset": 3576,
      "componentType": 5125,
      "count": 600,
      "type": "SCALAR"
    },
    {
      "bufferView": 2,
      "byteOffset": 11952,
      "componentType": 5126,
      "count": 257,
      "max": [
        1.6999999284744263,
        -0.4171224534511566,
        0.699999988079071
      ],
      "min": [
        -1.6999999284744263,
        -0.5397221446037292,
        -0.699999988079071
      ],
      "type": "VEC3"
    },
    {
      "bufferView": 2,
      "byteOffset": 15036,
      "componentType": 5126,
      "count": 257,
      "max": [
        1.0,
        1.0,
        1.0
      ],
      "min": [
        -1.0,
        -0.0532752200961113,
        -1.0
      ],
      "type": "VEC3"
    },
    {
      "bufferView": 1,
      "byteOffset": 3984,
      "componentType": 5126,
      "count": 257,
      "max": [
        1.0,
        1.0
      ],
      "min": [
        0.4999999403953552,
        0.0
      ],
      "type": "VEC2"
    },
    {
      "bufferView": 0,
      "byteOffset": 5976,
      "componentType": 5125,
      "count": 1086,
      "type": "SCALAR"
    },
    {
      "bufferView": 2,
      "byteOffset": 18120,
      "componentType": 5126,
      "count": 1127,
      "max": [
        1.0105096101760864,
        1.029821753501892,
        0.33064937591552734
      ],
      "min": [
        -1.0100699663162231,
        -1.0100661516189575,
        -0.1767587810754776
      ],
      "type": "VEC3"
    },
    {
      "bufferView": 2,
      "byteOffset": 31644,
      "componentType": 5126,
      "count": 1127,
      "max": [
        0.9971269965171814,
        0.9977245330810547,
        0.999980628490448
      ],
      "min": [
        -0.9972282648086548,
        -0.9977861046791077,
        -0.999974250793457
      ],
      "type": "VEC3"
    },
    {
      "bufferView": 1,
      "byteOffset": 6040,
      "componentType": 5126,
      "count": 1127,
      "max": [
        1.0,
        1.0
      ],
      "min": [
        0.0,
        0.0
      ],
      "type": "VEC2"
    },
    {
      "bufferView": 0,
      "byteOffset": 10320,
      "componentType": 5125,
      "count": 6336,
      "type": "SCALAR"
    }
  ],
  "asset": {
    "extras": {
      "author": "madha (https://sketchfab.com/madha)",
      "license": "CC-BY-4.0 (http://creativecommons.org/licenses/by/4.0/)",
      "source": "https://sketchfab.com/3d-models/vr-headset-366bff6ac3ac4ad1bece6de214b51a95",
      "title": "VR Headset"
    },
    "generator": "Sketchfab-15.31.0",
    "version": "2.0"
  },
  "bufferViews": [
    {
      "buffer": 0,
      "byteLength": 35664,
      "name": "floatBufferViews",
      "target": 34963
    },
    {
      "buffer": 0,
      "byteLength": 15056,
      "byteOffset": 35664,
      "byteStride": 8,
      "name": "floatBufferViews",
      "target": 34962
    },
    {
      "buffer": 0,
      "byteLength": 45168,
      "byteOffset": 50720,
      "byteStride": 12,
      "name": "floatBufferViews",
      "target": 34962
    }
  ],
  "buffers": [
    {
      "byteLength": 95888,
      "uri": "headset.bin"
    }
  ],
  "extensionsUsed": [
    "KHR_materials_specular"
  ],
  "materials": [
    {
      "doubleSided": true,
      "name": "material",
      "pbrMetallicRoughness": {
        "baseColorFactor": [
          0.0100214,
          0.0100214,
          0.0100214,
          1.0
        ],
        "metallicFactor": 0.0,
        "roughnessFactor": 0.9984980007108387
      }
    },
    {
      "doubleSided": true,
      "name": "Base",
      "pbrMetallicRoughness": {
        "baseColorFactor": [
          0.710553,
          0.710553,
          0.710553,
          1.0
        ],
        "metallicFactor": 0.364191586107691,
        "roughnessFactor": 0.3702868427789494
      }
    },
    {
      "doubleSided": true,
      "extensions": {
        "KHR_materials_specular": {
          "specularColorFactor": [
            1.0,
            1.0,
            1.0
          ],
          "specularFactor": 0.5470492862454438
        }
      },
      "name": "Glass",
      "pbrMetallicRoughness": {
        "baseColorFactor": [
          0.0,
          0.0,
          0.0,
          1.0
        ],
        "metallicFactor": 0.7177164730406796,
        "roughnessFactor": 0.33981055942265725
      }
    },
    {
      "doubleSided": true,
      "name": "Head",
      "pbrMetallicRoughness": {
        "baseColorFactor": [
          0.00719328,
          0.00719328,
          0.00719328,
          1.0
        ],
        "metallicFactor": 0.0,
        "roughnessFactor": 0.9989046261251514
      }
    }
  ],
  "meshes": [
    {
      "name": "Plane_Fab_0",
      "primitives": [
        {
          "attributes": {
            "NORMAL": 1,
            "POSITION": 0,
            "TEXCOORD_0": 2
          },
          "indices": 3,
          "material": 0,
          "mode": 4
        }
      ]
    },
    {
      "name": "Plane_Base_0",
      "primitives": [
        {
          "attributes": {
            "NORMAL": 5,
            "POSITION": 4,
            "TEXCOORD_0": 6
          },
          "indices": 7,
          "material": 1,
          "mode": 4
        }
      ]
    },
    {
      "name": "Plane_Glass_0",
      "primitives": [
        {
          "attributes": {
            "NORMAL": 9,
            "POSITION": 8,
            "TEXCOORD_0": 10
          },
          "indices": 11,
          "material": 2,
          "mode": 4
        }
      ]
    },
    {
      "name": "BezierCircle_Head_0",
      "primitives": [
        {
          "attributes": {
            "NORMAL": 13,
            "POSITION": 12,
            "TEXCOORD_0": 14
          },
          "indices": 15,
          "material": 3,
          "mode": 4
        }
      ]
    }
  ],
  "nodes": [
    {
      "children": [
        1
      ],
      "matrix": [
        0.9915999174118042,
        -0.12863676249980927,
        -0.013496791943907765,
        0.0,
        -0.0012661728542298079,
        0.09468988329172157,
        -0.9955059885978699,
        0.0,
        0.12933668494224548,
        0.9871608018875122,
        0.09373160451650642,
        0.0,
        0.0,
        0.0,
        0.0,
        1.0
      ],
      "name": "Sketchfab_model"
    },
    {
      "children": [
        2
      ],
      "matrix": [
        0.009999999776482582,
        0.0,
        0.0,
        0.0,
        0.0,
        0.0,
        0.009999999776482582,
        0.0,
        0.0,
        -0.009999999776482582,
        0.0,
        0.0,
        0.0,
        0.0,
        0.0,
        1.0
      ],
      "name": "7674f6af08204a5398dd66e40921f723.fbx"
    },
    {
      "children": [
        3
      ],
      "name": "RootNode"
    },
    {
      "children": [
        4,
        8
      ],
      "matrix": [
        106.72154235839844,
        0.0,
        0.0,
        0.0,
        0.0,
        -1.890288077593745e-05,
        -116.02505493163909,
        0.0,
        0.0,
        85.09848785400278,
        -1.386430345639183e-05,
        0.0,
        0.0,
        0.0,
        0.0,
        1.0
      ],
      "name": "Empty.002"
    },
    {
      "children": [
        5,
        6,
        7
      ],
      "matrix": [
        0.4400698244571686,
        0.0,
        0.0,
        0.0,
        0.0,
        0.4047826826572418,
        -1.323488980084844e-23,
        0.0,
        0.0,
        1.8044723795543087e-23,
        0.5518891215324402,
        0.0,
        -1.7715328064402637e-18,
        -0.5944212675094604,
        -0.010005509480834007,
        1.0
      ],
      "name": "Plane"
    },
    {
      "mesh": 0,
      "name": "Plane_Fab_0"
    },
    {
      "mesh": 1,
      "name": "Plane_Base_0"
    },
    {
      "mesh": 2,
      "name": "Plane_Glass_0"
    },
    {
      "children": [
        9
      ],
      "matrix": [
        0.7524096965789795,
        0.0,
        0.0,
        0.0,
        0.0,
        0.792190432548523,
        0.0,
        0.0,
        0.0,
        0.0,
        1.0800889730453491,
        0.0,
        -1.7715328064402637e-18,
        0.02951154112815857,
        0.03726765140891075,
        1.0
      ],
      "name": "BezierCircle"
    },
    {
      "mesh": 3,
      "name": "BezierCircle_Head_0"
    }
  ],
  "scene": 0,
  "scenes": [
    {
      "name": "Sketchfab_Scene",
      "nodes": [
        0
      ]
    }
  ]
}
